<mxfile host="app.diagrams.net" modified="2020-09-08T03:14:12.110Z" agent="5.0 (Windows NT 6.1; Win64; x64) AppleWebKit/537.36 (KHTML, like Gecko) Chrome/85.0.4183.83 Safari/537.36" etag="hecNnG4lGuWXTtB7zZuf" version="13.6.6" type="github">
  <diagram id="C5RBs43oDa-KdzZeNtuy" name="Page-1">
    <mxGraphModel dx="1185" dy="662" grid="1" gridSize="10" guides="1" tooltips="1" connect="1" arrows="1" fold="1" page="1" pageScale="1" pageWidth="827" pageHeight="1169" math="0" shadow="0">
      <root>
        <mxCell id="WIyWlLk6GJQsqaUBKTNV-0" />
        <mxCell id="WIyWlLk6GJQsqaUBKTNV-1" parent="WIyWlLk6GJQsqaUBKTNV-0" />
        <mxCell id="WIyWlLk6GJQsqaUBKTNV-3" value="&lt;font style=&quot;font-size: 16px&quot;&gt;&lt;b&gt;reusable response&lt;br&gt;&lt;/b&gt;&lt;/font&gt;可重用响应" style="rounded=1;whiteSpace=wrap;fontSize=12;glass=0;strokeWidth=1;shadow=0;labelBackgroundColor=none;spacing=0;html=1;labelBorderColor=none;spacingTop=0;spacingLeft=0;labelPosition=center;verticalLabelPosition=middle;align=center;verticalAlign=middle;fillColor=#99CCFF;strokeColor=#1A1A1A;" parent="WIyWlLk6GJQsqaUBKTNV-1" vertex="1">
          <mxGeometry x="130" y="30" width="170" height="70" as="geometry" />
        </mxCell>
        <mxCell id="WIyWlLk6GJQsqaUBKTNV-7" value="&lt;div style=&quot;font-size: 16px&quot;&gt;&lt;font style=&quot;font-size: 16px&quot;&gt;&lt;b&gt;private&lt;br&gt;&lt;/b&gt;&lt;/font&gt;&lt;/div&gt;&lt;div&gt;&lt;font style=&quot;font-size: 12px&quot;&gt;私有的&lt;/font&gt;&lt;/div&gt;" style="rounded=1;whiteSpace=wrap;html=1;fontSize=12;glass=0;strokeWidth=1;shadow=0;fillColor=#fff2cc;strokeColor=#1A1A1A;" parent="WIyWlLk6GJQsqaUBKTNV-1" vertex="1">
          <mxGeometry x="40" y="340" width="140" height="50" as="geometry" />
        </mxCell>
        <mxCell id="WIyWlLk6GJQsqaUBKTNV-11" value="&lt;font style=&quot;font-size: 16px&quot;&gt;&lt;b&gt;add etag header&lt;br&gt;&lt;/b&gt;&lt;/font&gt;添加etag标题" style="rounded=1;whiteSpace=wrap;html=1;fontSize=12;glass=0;strokeWidth=1;shadow=0;fillColor=#d5e8d4;strokeColor=#1A1A1A;" parent="WIyWlLk6GJQsqaUBKTNV-1" vertex="1">
          <mxGeometry x="140" y="670" width="180" height="50" as="geometry" />
        </mxCell>
        <mxCell id="WIyWlLk6GJQsqaUBKTNV-12" value="&lt;font style=&quot;font-size: 16px&quot;&gt;&lt;b&gt;public&lt;br&gt;&lt;/b&gt;&lt;/font&gt;&lt;font style=&quot;font-size: 12px&quot;&gt;公共的&lt;/font&gt;" style="rounded=1;whiteSpace=wrap;html=1;fontSize=12;glass=0;strokeWidth=1;shadow=0;fillColor=#fff2cc;strokeColor=#1A1A1A;" parent="WIyWlLk6GJQsqaUBKTNV-1" vertex="1">
          <mxGeometry x="270" y="340" width="140" height="50" as="geometry" />
        </mxCell>
        <mxCell id="prfSx0wUE2RMKLhTrQk_-0" value="&lt;font style=&quot;font-size: 16px&quot;&gt;&lt;b&gt;cacheable by intermediate caches&lt;br&gt;&lt;/b&gt;&lt;/font&gt;可由中间缓存缓存" style="rounded=1;whiteSpace=wrap;html=1;fillColor=#99CCFF;" vertex="1" parent="WIyWlLk6GJQsqaUBKTNV-1">
          <mxGeometry x="40" y="230" width="320" height="60" as="geometry" />
        </mxCell>
        <mxCell id="prfSx0wUE2RMKLhTrQk_-1" value="&lt;font style=&quot;font-size: 16px&quot; color=&quot;#1a1a1a&quot;&gt;&lt;b&gt;no-store&lt;/b&gt;&lt;/font&gt;&lt;br&gt;禁止重用" style="rounded=1;whiteSpace=wrap;html=1;fillColor=#fff2cc;strokeColor=#1A1A1A;" vertex="1" parent="WIyWlLk6GJQsqaUBKTNV-1">
          <mxGeometry x="30" y="140" width="150" height="60" as="geometry" />
        </mxCell>
        <mxCell id="prfSx0wUE2RMKLhTrQk_-2" value="&lt;font color=&quot;#1a1a1a&quot; style=&quot;font-size: 16px&quot;&gt;&lt;b&gt;revalidate each time&lt;br&gt;&lt;/b&gt;&lt;/font&gt;每次重新验证" style="rounded=1;whiteSpace=wrap;html=1;fillColor=#99CCFF;" vertex="1" parent="WIyWlLk6GJQsqaUBKTNV-1">
          <mxGeometry x="270" y="140" width="210" height="60" as="geometry" />
        </mxCell>
        <mxCell id="prfSx0wUE2RMKLhTrQk_-5" value="" style="endArrow=classic;html=1;exitX=0.5;exitY=1;exitDx=0;exitDy=0;entryX=0.25;entryY=0;entryDx=0;entryDy=0;" edge="1" parent="WIyWlLk6GJQsqaUBKTNV-1" source="WIyWlLk6GJQsqaUBKTNV-3" target="prfSx0wUE2RMKLhTrQk_-2">
          <mxGeometry width="50" height="50" relative="1" as="geometry">
            <mxPoint x="260" y="410" as="sourcePoint" />
            <mxPoint x="310" y="360" as="targetPoint" />
          </mxGeometry>
        </mxCell>
        <mxCell id="prfSx0wUE2RMKLhTrQk_-6" value="" style="endArrow=classic;html=1;entryX=0.5;entryY=0;entryDx=0;entryDy=0;" edge="1" parent="WIyWlLk6GJQsqaUBKTNV-1" target="prfSx0wUE2RMKLhTrQk_-1">
          <mxGeometry width="50" height="50" relative="1" as="geometry">
            <mxPoint x="220" y="100" as="sourcePoint" />
            <mxPoint x="320" y="150" as="targetPoint" />
          </mxGeometry>
        </mxCell>
        <mxCell id="prfSx0wUE2RMKLhTrQk_-8" value="&lt;font style=&quot;font-size: 16px&quot;&gt;&lt;b&gt;no-cache&lt;/b&gt;&lt;/font&gt;&lt;br&gt;无缓存" style="rounded=1;whiteSpace=wrap;html=1;fillColor=#fff2cc;strokeColor=#1A1A1A;" vertex="1" parent="WIyWlLk6GJQsqaUBKTNV-1">
          <mxGeometry x="420" y="230" width="154" height="60" as="geometry" />
        </mxCell>
        <mxCell id="prfSx0wUE2RMKLhTrQk_-9" value="" style="endArrow=classic;html=1;exitX=0.5;exitY=1;exitDx=0;exitDy=0;" edge="1" parent="WIyWlLk6GJQsqaUBKTNV-1" source="prfSx0wUE2RMKLhTrQk_-2">
          <mxGeometry width="50" height="50" relative="1" as="geometry">
            <mxPoint x="390" y="180" as="sourcePoint" />
            <mxPoint x="510" y="230" as="targetPoint" />
          </mxGeometry>
        </mxCell>
        <mxCell id="prfSx0wUE2RMKLhTrQk_-10" value="" style="endArrow=classic;html=1;entryX=0.622;entryY=0.017;entryDx=0;entryDy=0;entryPerimeter=0;" edge="1" parent="WIyWlLk6GJQsqaUBKTNV-1" target="prfSx0wUE2RMKLhTrQk_-0">
          <mxGeometry width="50" height="50" relative="1" as="geometry">
            <mxPoint x="375" y="200" as="sourcePoint" />
            <mxPoint x="260" y="220" as="targetPoint" />
          </mxGeometry>
        </mxCell>
        <mxCell id="prfSx0wUE2RMKLhTrQk_-12" value="" style="endArrow=classic;html=1;exitX=0.5;exitY=1;exitDx=0;exitDy=0;" edge="1" parent="WIyWlLk6GJQsqaUBKTNV-1" source="prfSx0wUE2RMKLhTrQk_-0">
          <mxGeometry width="50" height="50" relative="1" as="geometry">
            <mxPoint x="180" y="290" as="sourcePoint" />
            <mxPoint x="93" y="340" as="targetPoint" />
          </mxGeometry>
        </mxCell>
        <mxCell id="prfSx0wUE2RMKLhTrQk_-13" value="" style="endArrow=classic;html=1;entryX=0.5;entryY=0;entryDx=0;entryDy=0;exitX=0.591;exitY=1.017;exitDx=0;exitDy=0;exitPerimeter=0;" edge="1" parent="WIyWlLk6GJQsqaUBKTNV-1" source="prfSx0wUE2RMKLhTrQk_-0" target="WIyWlLk6GJQsqaUBKTNV-12">
          <mxGeometry width="50" height="50" relative="1" as="geometry">
            <mxPoint x="240" y="271" as="sourcePoint" />
            <mxPoint x="360" y="320" as="targetPoint" />
          </mxGeometry>
        </mxCell>
        <mxCell id="prfSx0wUE2RMKLhTrQk_-14" value="" style="endArrow=classic;html=1;exitX=0.5;exitY=1;exitDx=0;exitDy=0;entryX=0.62;entryY=0.113;entryDx=0;entryDy=0;entryPerimeter=0;" edge="1" parent="WIyWlLk6GJQsqaUBKTNV-1" source="WIyWlLk6GJQsqaUBKTNV-12">
          <mxGeometry width="50" height="50" relative="1" as="geometry">
            <mxPoint x="350" y="380" as="sourcePoint" />
            <mxPoint x="252.20000000000005" y="429.03999999999996" as="targetPoint" />
          </mxGeometry>
        </mxCell>
        <mxCell id="prfSx0wUE2RMKLhTrQk_-15" value="" style="endArrow=classic;html=1;entryX=0.362;entryY=-0.014;entryDx=0;entryDy=0;entryPerimeter=0;exitX=0.414;exitY=0.98;exitDx=0;exitDy=0;exitPerimeter=0;" edge="1" parent="WIyWlLk6GJQsqaUBKTNV-1" source="WIyWlLk6GJQsqaUBKTNV-7" target="prfSx0wUE2RMKLhTrQk_-16">
          <mxGeometry width="50" height="50" relative="1" as="geometry">
            <mxPoint x="110" y="390" as="sourcePoint" />
            <mxPoint x="171.60000000000002" y="427.03999999999996" as="targetPoint" />
          </mxGeometry>
        </mxCell>
        <mxCell id="prfSx0wUE2RMKLhTrQk_-16" value="&lt;font style=&quot;font-size: 16px&quot;&gt;&lt;b&gt;&lt;span style=&quot;color: rgb(0 , 0 , 0) ; font-family: &amp;#34;helvetica&amp;#34; ; font-style: normal ; letter-spacing: normal ; text-indent: 0px ; text-transform: none ; word-spacing: 0px ; display: inline ; float: none&quot;&gt;maximum cache lifetime&lt;/span&gt;&lt;br style=&quot;color: rgb(0 , 0 , 0) ; font-family: &amp;#34;helvetica&amp;#34; ; font-style: normal ; letter-spacing: normal ; text-indent: 0px ; text-transform: none ; word-spacing: 0px&quot;&gt;&lt;/b&gt;&lt;/font&gt;&lt;span style=&quot;color: rgb(0 , 0 , 0) ; font-family: &amp;#34;helvetica&amp;#34; ; font-size: 12px ; font-style: normal ; font-weight: 400 ; letter-spacing: normal ; text-indent: 0px ; text-transform: none ; word-spacing: 0px ; display: inline ; float: none&quot;&gt;最大缓存&lt;/span&gt;&lt;span style=&quot;color: rgb(0 , 0 , 0) ; font-family: &amp;#34;helvetica&amp;#34; ; font-size: 12px ; font-style: normal ; font-weight: 400 ; letter-spacing: normal ; text-indent: 0px ; text-transform: none ; word-spacing: 0px ; display: inline ; float: none&quot;&gt;生存期&lt;/span&gt;" style="rounded=1;whiteSpace=wrap;html=1;labelBackgroundColor=none;fontFamily=Tahoma;strokeColor=#1A1A1A;fillColor=#99CCFF;align=center;" vertex="1" parent="WIyWlLk6GJQsqaUBKTNV-1">
          <mxGeometry x="110" y="430" width="210" height="70" as="geometry" />
        </mxCell>
        <mxCell id="prfSx0wUE2RMKLhTrQk_-17" value="&lt;font face=&quot;helvetica&quot; style=&quot;font-size: 16px&quot;&gt;&lt;b&gt;max-age=····&lt;/b&gt;&lt;/font&gt;&lt;br&gt;&lt;font face=&quot;helvetica&quot;&gt;最长缓存&lt;/font&gt;&lt;span style=&quot;font-family: &amp;#34;helvetica&amp;#34;&quot;&gt;时间为···&lt;/span&gt;" style="rounded=1;whiteSpace=wrap;html=1;labelBackgroundColor=none;fillColor=#fff2cc;fontFamily=Tahoma;strokeColor=#1A1A1A;" vertex="1" parent="WIyWlLk6GJQsqaUBKTNV-1">
          <mxGeometry x="140" y="550" width="170" height="60" as="geometry" />
        </mxCell>
        <mxCell id="prfSx0wUE2RMKLhTrQk_-20" value="" style="endArrow=classic;html=1;fontFamily=Tahoma;" edge="1" parent="WIyWlLk6GJQsqaUBKTNV-1">
          <mxGeometry width="50" height="50" relative="1" as="geometry">
            <mxPoint x="225" y="500" as="sourcePoint" />
            <mxPoint x="224.5" y="550" as="targetPoint" />
          </mxGeometry>
        </mxCell>
        <mxCell id="prfSx0wUE2RMKLhTrQk_-21" value="" style="endArrow=classic;html=1;fontFamily=Tahoma;exitX=0.5;exitY=1;exitDx=0;exitDy=0;" edge="1" parent="WIyWlLk6GJQsqaUBKTNV-1" source="prfSx0wUE2RMKLhTrQk_-17">
          <mxGeometry width="50" height="50" relative="1" as="geometry">
            <mxPoint x="220" y="650" as="sourcePoint" />
            <mxPoint x="225" y="670" as="targetPoint" />
          </mxGeometry>
        </mxCell>
        <mxCell id="prfSx0wUE2RMKLhTrQk_-23" value="&lt;font color=&quot;#990000&quot; face=&quot;Garamond&quot;&gt;&lt;b&gt;No&lt;/b&gt;&lt;/font&gt;" style="text;html=1;strokeColor=none;fillColor=none;align=center;verticalAlign=middle;whiteSpace=wrap;rounded=0;labelBackgroundColor=none;fontFamily=Tahoma;" vertex="1" parent="WIyWlLk6GJQsqaUBKTNV-1">
          <mxGeometry x="110" y="103" width="40" height="20" as="geometry" />
        </mxCell>
        <mxCell id="prfSx0wUE2RMKLhTrQk_-24" value="&lt;b&gt;&lt;font color=&quot;#336600&quot;&gt;Yes&lt;/font&gt;&lt;/b&gt;" style="text;html=1;strokeColor=none;fillColor=none;align=center;verticalAlign=middle;whiteSpace=wrap;rounded=0;labelBackgroundColor=none;fontFamily=Tahoma;" vertex="1" parent="WIyWlLk6GJQsqaUBKTNV-1">
          <mxGeometry x="280" y="103" width="40" height="20" as="geometry" />
        </mxCell>
        <mxCell id="prfSx0wUE2RMKLhTrQk_-25" value="&lt;font color=&quot;#990000&quot; face=&quot;Garamond&quot;&gt;&lt;b&gt;No&lt;/b&gt;&lt;/font&gt;" style="text;html=1;strokeColor=none;fillColor=none;align=center;verticalAlign=middle;whiteSpace=wrap;rounded=0;labelBackgroundColor=none;fontFamily=Tahoma;" vertex="1" parent="WIyWlLk6GJQsqaUBKTNV-1">
          <mxGeometry x="252" y="200" width="40" height="20" as="geometry" />
        </mxCell>
        <mxCell id="prfSx0wUE2RMKLhTrQk_-26" value="&lt;b&gt;&lt;font color=&quot;#336600&quot;&gt;Yes&lt;/font&gt;&lt;/b&gt;" style="text;html=1;strokeColor=none;fillColor=none;align=center;verticalAlign=middle;whiteSpace=wrap;rounded=0;labelBackgroundColor=none;fontFamily=Tahoma;" vertex="1" parent="WIyWlLk6GJQsqaUBKTNV-1">
          <mxGeometry x="460" y="200" width="40" height="20" as="geometry" />
        </mxCell>
        <mxCell id="prfSx0wUE2RMKLhTrQk_-27" value="&lt;b&gt;&lt;font color=&quot;#336600&quot;&gt;Yes&lt;/font&gt;&lt;/b&gt;" style="text;html=1;strokeColor=none;fillColor=none;align=center;verticalAlign=middle;whiteSpace=wrap;rounded=0;labelBackgroundColor=none;fontFamily=Tahoma;" vertex="1" parent="WIyWlLk6GJQsqaUBKTNV-1">
          <mxGeometry x="300" y="300" width="40" height="20" as="geometry" />
        </mxCell>
        <mxCell id="prfSx0wUE2RMKLhTrQk_-28" value="&lt;font color=&quot;#990000&quot; face=&quot;Garamond&quot;&gt;&lt;b&gt;No&lt;/b&gt;&lt;/font&gt;" style="text;html=1;strokeColor=none;fillColor=none;align=center;verticalAlign=middle;whiteSpace=wrap;rounded=0;labelBackgroundColor=none;fontFamily=Tahoma;" vertex="1" parent="WIyWlLk6GJQsqaUBKTNV-1">
          <mxGeometry x="85" y="300" width="40" height="20" as="geometry" />
        </mxCell>
        <mxCell id="prfSx0wUE2RMKLhTrQk_-29" value="" style="endArrow=classic;html=1;fontFamily=Tahoma;" edge="1" parent="WIyWlLk6GJQsqaUBKTNV-1">
          <mxGeometry width="50" height="50" relative="1" as="geometry">
            <mxPoint x="420" y="259.5" as="sourcePoint" />
            <mxPoint x="360" y="260" as="targetPoint" />
          </mxGeometry>
        </mxCell>
      </root>
    </mxGraphModel>
  </diagram>
</mxfile>
